# xmcd CD database file
#
# Track frame offsets:
#	150
#	15070
#	28395
#	42169
#	55001
#	68762
#	87849
#	102338
#	121547
#	135459
#	152189
#	180559
#	195322
#	220452
#	243880
#	258168
#	272212
#	282154
#
# Disc length: 4096 seconds
#
# Revision: 0
# Processed by: cddbd v1.4PL0 Copyright (c) Steve Scherf et al.
# Submitted via: CdAid 2001.05.15.01
#
DISCID=eb0ffe12
DTITLE=Al Green - The Very Best Of Al Green
DYEAR=1900
DGENRE=
TTITLE0=Lets Stay Together
TTITLE1=Sha La La (Make Me Happy)
TTITLE2=L-O-V-E (Love)
TTITLE3=Tired Of Being Alone
TTITLE4=Call Me (Come Back Home)
TTITLE5=Simply Beautiful
TTITLE6=I'm Still In Love With You
TTITLE7=Here I Am (Come And Take Me)
TTITLE8=Look What You Done For Me
TTITLE9=Take Me To The River
TTITLE10=How Can You Mend A Broken Heart
TTITLE11=You Ought To Be With Me
TTITLE12=Lets Get Married
TTITLE13=Ful Of Fun
TTITLE14=Livin' For You
TTITLE15=Keep Me Cryin'
TTITLE16=I Say A Little Prayer
TTITLE17=Unchained Melody
EXTD=
EXTT0=
EXTT1=
EXTT2=
EXTT3=
EXTT4=
EXTT5=
EXTT6=
EXTT7=
EXTT8=
EXTT9=
EXTT10=
EXTT11=
EXTT12=
EXTT13=
EXTT14=
EXTT15=
EXTT16=
EXTT17=
PLAYORDER=
